<svg xmlns="http://www.w3.org/2000/svg" width="112" height="50" viewBox="0 0 112 50" fill="none"><path d="M74.8172 6.46631C74.8172 16.9926 80.8387 27.0678 83.2473 30.5265C83.8495 31.3535 84.7527 31.8798 85.7312 31.8798H101.086C102.065 31.8798 103.043 31.3535 103.57 30.5265C105.978 26.9926 112 16.9174 112 6.46631H74.8172V6.46631Z" fill="#43A0D6"></path><path d="M76.172 32.707C76.0968 32.6318 76.0215 32.5566 75.9462 32.4062C76.0215 32.5566 76.0968 32.6318 76.172 32.707Z" fill="#002C6A"></path><path d="M62.7742 10.8271H66.3871C66.7634 12.9324 67.4408 15.7144 68.5699 18.8723C67.4408 15.7144 66.7634 12.9324 66.3871 10.8271H62.7742V10.8271Z" fill="#002C6A"></path><path d="M72.1828 41.0528C73.086 39.549 73.914 38.0453 74.6667 36.5415C73.914 38.1205 73.086 39.6242 72.1828 41.0528Z" fill="#002C6A"></path><path d="M76.4731 32.9321C76.0215 33.8344 75.5699 34.8118 75.1183 35.7141C75.5699 34.8118 76.0215 33.9096 76.4731 32.9321Z" fill="#002C6A"></path><path d="M88.215 14.0603C89.3441 9.54902 89.7204 6.5415 89.7204 6.5415H84.3763C84.0752 9.24827 83.4731 12.2558 82.7204 15.4137C82.6451 15.6392 82.5699 15.8648 82.5699 16.0904C81.8172 18.9475 80.914 21.955 79.7849 24.9626C79.4086 26.0152 78.957 27.0678 78.5806 28.1205C78.5054 28.0453 78.4301 27.9701 78.4301 27.8949C78.3548 27.8197 78.3548 27.8197 78.2795 27.7445C77.3763 26.2408 75.9462 23.8347 74.6666 20.6017C74.6666 20.5265 74.5914 20.4513 74.5914 20.3761C74.4408 19.925 74.215 19.4738 74.0645 18.9475C72.7849 15.4889 71.6559 11.2783 71.2043 6.5415V6.5415H62.7742V10.752H66.3871C66.7634 12.8573 67.4408 15.6392 68.5699 18.7971C70 22.8573 72.1828 27.4438 75.5699 31.8799C75.7204 32.0302 75.8709 32.2558 76.0215 32.4062C76.0968 32.4814 76.172 32.6317 76.2473 32.7069C76.3226 32.7821 76.3978 32.8573 76.4731 32.9325C76.0215 33.8347 75.5699 34.8122 75.1183 35.7144C74.9677 36.0152 74.8172 36.2408 74.6666 36.5415C73.8387 38.0453 73.0107 39.6242 72.1828 41.0528H77.0752C78.129 39.3986 79.1828 37.7445 80.086 36.0152C81.1398 34.0603 82.043 32.1054 82.8709 30.2257C83.9247 27.7445 84.8279 25.3385 85.5806 23.0077C85.7312 22.5565 85.8817 22.1054 86.0322 21.6543C86.1828 21.2032 86.3333 20.752 86.4838 20.3009C86.8602 18.9475 87.2365 17.6693 87.5376 16.4663C87.7634 15.7144 87.914 14.9626 88.0645 14.2859C88.1398 14.2107 88.1398 14.1355 88.215 14.0603Z" fill="#002C6A"></path><path d="M76.0968 46.7668C76.0968 48.5713 74.6667 49.9999 72.8602 49.9999C71.0538 49.9999 69.6237 48.5713 69.6237 46.7668C69.6237 44.9623 71.0538 43.5337 72.8602 43.5337C74.5914 43.5337 76.0968 44.9623 76.0968 46.7668Z" fill="#002C6A"></path><path d="M105.376 46.7668C105.376 48.5713 103.946 49.9999 102.14 49.9999C100.333 49.9999 98.9032 48.5713 98.9032 46.7668C98.9032 44.9623 100.333 43.5337 102.14 43.5337C103.946 43.5337 105.376 44.9623 105.376 46.7668Z" fill="#002C6A"></path><path d="M12.4194 33.6842C7 33.6842 3.83871 30.9023 3.83871 24.3609V10.6767H0V6.39098H3.83871V0.300752L9.1828 0V6.39098H15.8065V10.6767H9.1828V24.2857C9.1828 27.8195 10.6882 29.1729 13.3226 29.1729C14.4516 29.1729 15.5806 29.0226 16.4086 28.797L16.7097 33.0827C15.4301 33.4586 14.0753 33.6842 12.4194 33.6842Z" fill="#002C6A"></path><path d="M33.2688 5.71436C34.7742 5.71436 36.0538 5.86473 37.0323 6.0903L36.2796 10.6016C35.4516 10.3008 34.4731 10.2256 33.6452 10.2256C31.0108 10.2256 28.9785 10.8271 27.4731 11.579V33.0828H22.129V8.27075C24.914 6.76699 29.2043 5.71436 33.2688 5.71436Z" fill="#002C6A"></path><path d="M49.6775 33.6843C42.6775 33.6843 39.2151 30.3008 39.2151 25.7144C39.2151 20.2256 43.6559 17.5189 49.6775 17.5189C51.4839 17.5189 53.6667 17.7444 55.3226 18.1204V15.9399C55.3226 12.2557 53.2904 10.2256 49.0753 10.2256C46.5914 10.2256 44.0323 10.6768 41.9248 11.579L40.871 7.29331C43.0538 6.39105 46.4409 5.78955 49.6022 5.78955C56.9033 5.78955 60.5162 9.54895 60.5162 16.2407V31.3535C58.3334 32.5565 54.6452 33.6843 49.6775 33.6843ZM55.2473 28.5715V21.6542C53.742 21.2783 52.0861 21.0527 50.2796 21.0527C46.9678 21.0527 44.5592 22.1805 44.5592 25.4888C44.5592 28.2708 46.5914 29.6993 50.1291 29.6993C52.5377 29.6993 54.2689 29.173 55.2473 28.5715Z" fill="#002C6A"></path></svg>